<svg xmlns="http://www.w3.org/2000/svg" width="181" height="31" viewBox="0 0 181 31">
    <g fill="none" fill-rule="evenodd">
        <g fill="#0086CC" fill-rule="nonzero">
            <g>
                <g>
                    <g>
                        <path d="M24.438.35c3.635 0 6.657 2.968 6.657 6.636v17.29c0 3.624-2.978 6.637-6.657 6.637H7.051c-3.635 0-6.657-2.97-6.657-6.637V6.986C.394 3.362 3.372.349 7.051.349h17.387zM7.095 21.481c-1.548 0-2.803 1.25-2.803 2.794 0 1.543 1.255 2.794 2.803 2.794s2.803-1.25 2.803-2.794c0-1.543-1.255-2.794-2.803-2.794zM26.496 4.104h-3.372v8.645l-.269-.11c-.64-.247-1.368-.414-2.096-.414h-3.372l-.22.005c-3.052.115-5.517 2.645-5.517 5.715v3.362l.004.218c.116 3.044 2.653 5.502 5.733 5.502H19.4l.312-.007c1.24-.055 2.4-.437 3.411-1.041v1.048h3.372V4.104zm-5.693 11.527c1.314 0 2.365 1.048 2.365 2.358v2.008l-.01.198c-.142 1.96-1.763 3.513-3.713 3.513h-2.014l-.163-.005c-1.237-.082-2.202-1.097-2.202-2.352v-3.362l.005-.163c.083-1.233 1.1-2.195 2.36-2.195z" transform="translate(-135 -26) translate(135 20) translate(0 6)"/>
                    </g>
                    <g>
                        <path d="M18.745.35v28.38H14.54v-1.292c-1.338.82-2.913 1.292-4.598 1.292H7.445C3.504 28.73.35 25.542.35 21.656v-4.191c0-3.93 3.197-7.073 7.095-7.073h4.205c1.031 0 2.01.218 2.89.61V.35h4.205zM35.08 10.391c3.942 0 7.095 3.187 7.095 7.073v4.191c0 3.886-3.197 7.074-7.095 7.074h-4.204c-3.942 0-7.095-3.188-7.095-7.074v-4.191c0-3.93 3.197-7.073 7.095-7.073h4.204zM51.46.349v7.51h4.555v4.192h-4.556v11.264c0 .7.57 1.267 1.27 1.267h3.33v4.148h-3.373c-3.022 0-5.43-2.445-5.43-5.415V12.051h-2.147V7.859h2.146V.349h4.205zm44.365 10.043c3.941 0 7.095 3.187 7.095 7.073V28.73h-4.205v-1.31c-1.34.83-2.916 1.31-4.598 1.31H91.62c-3.941 0-7.094-3.188-7.094-7.074v-4.191c0-3.93 3.197-7.073 7.094-7.073h4.205zM112.16.349v7.51h4.554v4.192h-4.555v11.264c0 .7.57 1.267 1.27 1.267h3.33v4.148h-3.373c-3.022 0-5.43-2.445-5.43-5.415l-.002-11.264h-2.145V7.859h2.145l.001-7.51h4.205zM72.307.306c3.941 0 7.094 3.187 7.094 7.073v14.19c.044 3.973-3.153 7.16-7.094 7.16h-11.3V.35h2.102V.306h9.198zm56.54 28.424c-3.942 0-7.095-3.188-7.095-7.074v-4.191c0-3.93 3.197-7.073 7.095-7.073h4.204c3.942 0 7.095 3.187 7.095 7.073V28.73h-4.204v-1.292c-1.338.82-2.913 1.292-4.599 1.292h-2.496zm4.16-14.19h-4.204c-1.62 0-2.934 1.31-2.934 2.925v4.191c0 1.616 1.313 2.926 2.934 2.926h2.109c.139-.029.283-.044.431-.044 2.54 0 4.599-2.052 4.599-4.584v-2.49c0-1.615-1.314-2.925-2.935-2.925zm-121.401 0h-4.16c-1.621 0-2.935 1.31-2.935 2.925v4.191c0 1.616 1.314 2.926 2.934 2.926h2.066c.138-.029.282-.044.43-.044 2.54 0 4.6-2.052 4.6-4.584v-2.49c0-1.615-1.315-2.925-2.935-2.925zm84.175 0h-4.204c-1.62 0-2.935 1.31-2.935 2.925v4.191c0 1.616 1.314 2.926 2.935 2.926h2.109c.138-.029.283-.044.43-.044 2.54 0 4.6-2.052 4.6-4.584v-2.49c0-1.615-1.315-2.925-2.935-2.925zm-60.7 0h-4.205c-1.62 0-2.934 1.31-2.934 2.925v4.191c0 1.616 1.313 2.926 2.934 2.926h4.204c1.62 0 2.935-1.31 2.935-2.926v-4.191c0-1.616-1.314-2.926-2.935-2.926zM72.306 4.496H65.21v20.04l7.096.001c1.62 0 2.934-1.31 2.934-2.925V7.423c0-1.616-1.314-2.926-2.934-2.926z" transform="translate(-135 -26) translate(135 20) translate(0 6) translate(39.854 1.31)"/>
                    </g>
                </g>
            </g>
        </g>
    </g>
</svg>
